<svg width="24" height="24" viewBox="0 0 24 24" fill="none" xmlns="http://www.w3.org/2000/svg">
<path d="M7.31738 4.25V4.25098C7.78665 4.25094 8.24232 4.40951 8.6084 4.70312L8.74023 4.81934C9.03559 5.10074 9.24202 5.46443 9.33105 5.86523L9.95801 8.68555L9.99121 8.87891C10.0393 9.26703 9.97586 9.66114 9.80859 10.0146L9.71582 10.1875C9.48065 10.5824 9.12176 10.8862 8.69727 11.0527L8.51074 11.1152L7.82324 11.3115C8.29103 12.3924 8.95662 13.3765 9.79004 14.21L10.123 14.5273C10.8808 15.2139 11.7479 15.769 12.6875 16.1758L12.8848 15.4893L12.9473 15.3027C13.1138 14.8782 13.4176 14.5194 13.8125 14.2842L13.9854 14.1914C14.3977 13.9963 14.8655 13.9424 15.3145 14.042L18.1348 14.6689L18.3037 14.7139C18.6933 14.8358 19.0398 15.0711 19.2969 15.3916C19.5905 15.7577 19.75 16.2133 19.75 16.6826V17.6875C19.75 18.2345 19.5323 18.7587 19.1455 19.1455C18.7587 19.5323 18.2345 19.75 17.6875 19.75H16.375C15.304 19.75 14.2648 19.6098 13.2734 19.3486H13.2725C11.3325 18.8335 9.55221 17.8463 8.08984 16.4775L7.80176 16.1982C6.38235 14.7788 5.33842 13.0314 4.76074 11.1133L4.65137 10.7275V10.7266C4.38456 9.71437 4.24942 8.67177 4.25 7.625V6.3125C4.25 5.76549 4.4677 5.24129 4.85449 4.85449L5.00586 4.7168C5.3728 4.41631 5.83405 4.25 6.3125 4.25H7.31738Z" stroke="currentColor" stroke-width="1.5"/>
</svg>
