<svg width="24" height="24" viewBox="0 0 24 24" fill="none" xmlns="http://www.w3.org/2000/svg">
<path d="M10.5164 16.2664C10.3992 16.3836 10.3333 16.5426 10.3333 16.7083C10.3333 16.8741 10.3992 17.0331 10.5164 17.1503C10.6336 17.2675 10.7926 17.3333 10.9583 17.3333H13.0417C13.2074 17.3333 13.3664 17.2675 13.4836 17.1503C13.6008 17.0331 13.6667 16.8741 13.6667 16.7083C13.6667 16.5426 13.6008 16.3836 13.4836 16.2664C13.3664 16.1492 13.2074 16.0833 13.0417 16.0833H10.9583C10.7926 16.0833 10.6336 16.1492 10.5164 16.2664Z" fill="currentColor"/>
<path fill-rule="evenodd" clip-rule="evenodd" d="M7.73223 5.73223C7.26339 6.20107 7 6.83696 7 7.5V17.5C7 18.163 7.26339 18.7989 7.73223 19.2678C8.20107 19.7366 8.83696 20 9.5 20H14.5C15.163 20 15.7989 19.7366 16.2678 19.2678C16.7366 18.7989 17 18.163 17 17.5V7.5C17 6.83696 16.7366 6.20107 16.2678 5.73223C15.7989 5.26339 15.163 5 14.5 5H9.5C8.83696 5 8.20107 5.26339 7.73223 5.73223ZM10.3333 6.875V6.25H9.5C9.16848 6.25 8.85054 6.3817 8.61612 6.61612C8.3817 6.85054 8.25 7.16848 8.25 7.5V17.5C8.25 17.8315 8.3817 18.1495 8.61612 18.3839C8.85054 18.6183 9.16848 18.75 9.5 18.75H14.5C14.8315 18.75 15.1495 18.6183 15.3839 18.3839C15.6183 18.1495 15.75 17.8315 15.75 17.5V7.5C15.75 7.16848 15.6183 6.85054 15.3839 6.61612C15.1495 6.3817 14.8315 6.25 14.5 6.25H13.6667V6.875C13.6667 7.04076 13.6008 7.19973 13.4836 7.31694C13.3664 7.43415 13.2074 7.5 13.0417 7.5H10.9583C10.6133 7.5 10.3333 7.22 10.3333 6.875Z" fill="currentColor"/>
</svg>
