<svg width="24" height="24" viewBox="0 0 24 24" fill="none" xmlns="http://www.w3.org/2000/svg">
<path d="M8.88889 8.11111V5M15.1111 8.11111V5M8.11111 11.2222C8.11111 11.2222 8.26234 11.2222 9 11.2222M8.11111 14.2222H8.88889M11.1111 14.2222H12.8889M15.1111 14.2222H15.8889M11.1111 11.2222H13M15.1111 11.2222H16M6.55556 19H17.4444C18.3 19 19 18.3 19 17.4444V8.11111C19 7.25556 18.3 6.55556 17.4444 6.55556H6.55556C5.7 6.55556 5 7.25556 5 8.11111V17.4444C5 18.3 5.7 19 6.55556 19Z" stroke="currentColor" stroke-width="1.5" stroke-linecap="round" stroke-linejoin="round"/>
</svg>
