<svg width="24" height="24" viewBox="0 0 24 24" fill="none" xmlns="http://www.w3.org/2000/svg">
    <path d="M12 16L10.9393 17.0607C11.2206 17.342 11.6022 17.5 12 17.5C12.3978 17.5 12.7794 17.342 13.0607 17.0607L12 16ZM6.06066 7.93934L5 6.87868L2.87868 9L3.93934 10.0607L6.06066 7.93934ZM20.0607 10.0607L21.1213 9L19 6.87868L17.9393 7.93934L20.0607 10.0607ZM13.0607 14.9393L6.06066 7.93934L3.93934 10.0607L10.9393 17.0607L13.0607 14.9393ZM17.9393 7.93934L10.9393 14.9393L13.0607 17.0607L20.0607 10.0607L17.9393 7.93934Z" fill="currentColor"/>
</svg>
