<svg width="24" height="24" viewBox="0 0 24 24" fill="none" xmlns="http://www.w3.org/2000/svg">
<path fill-rule="evenodd" clip-rule="evenodd" d="M13.3621 6.50444C12.762 5.49873 11.2376 5.49823 10.6365 6.50469L4.95739 16.0239C4.38702 16.9797 5.07417 18.25 6.31968 18.25H17.6791C18.925 18.25 19.6123 16.9794 19.0422 16.024L13.3621 6.50444ZM9.34872 5.73555C10.5316 3.75503 13.4679 3.75452 14.6502 5.7358L20.3303 15.2553C21.5425 17.2868 19.9995 19.75 17.6791 19.75H6.31968C3.99884 19.75 2.45725 17.2865 3.66922 15.2554L9.34872 5.73555ZM11.9998 8.75C12.414 8.75 12.7498 9.08579 12.7498 9.5V12.5C12.7498 12.9142 12.414 13.25 11.9998 13.25C11.5855 13.25 11.2498 12.9142 11.2498 12.5V9.5C11.2498 9.08579 11.5855 8.75 11.9998 8.75ZM11.9998 16C12.552 16 12.9998 15.5523 12.9998 15C12.9998 14.4477 12.552 14 11.9998 14C11.4475 14 10.9998 14.4477 10.9998 15C10.9998 15.5523 11.4475 16 11.9998 16Z" fill="currentColor"/>
</svg>
