<svg width="24" height="24" viewBox="0 0 24 24" fill="none" xmlns="http://www.w3.org/2000/svg">
<path d="M12 4C14.1217 4 16.1569 4.84248 17.6572 6.34277C19.1575 7.84306 20 9.87827 20 12C20 14.1217 19.1575 16.1569 17.6572 17.6572C16.1569 19.1575 14.1217 20 12 20C9.87827 20 7.84306 19.1575 6.34277 17.6572C4.84248 16.1569 4 14.1217 4 12C4 9.87827 4.84248 7.84306 6.34277 6.34277C7.84306 4.84248 9.87827 4 12 4ZM12 6C10.4087 6 8.88303 6.63259 7.75781 7.75781C6.63259 8.88303 6 10.4087 6 12C6 13.5913 6.63259 15.117 7.75781 16.2422C8.88303 17.3674 10.4087 18 12 18C13.5913 18 15.117 17.3674 16.2422 16.2422C17.3674 15.117 18 13.5913 18 12C18 10.968 17.732 9.96467 17.2383 9.0791L12.793 14.8594L12.0986 15.7627L8.08594 11.75L9.5 10.3359L11.9014 12.7373L15.9443 7.48047C14.8549 6.52961 13.4551 6 12 6Z" fill="currentColor"/>
</svg>
