<svg width="24" height="24" viewBox="0 0 24 24" fill="none" xmlns="http://www.w3.org/2000/svg">
<path fill-rule="evenodd" clip-rule="evenodd" d="M6.51992 6.51992C7.97333 5.06652 9.94457 4.25 12 4.25C14.0554 4.25 16.0267 5.06652 17.4801 6.51992C18.9335 7.97333 19.75 9.94457 19.75 12C19.75 14.0554 18.9335 16.0267 17.4801 17.4801C16.0267 18.9335 14.0554 19.75 12 19.75C9.94457 19.75 7.97333 18.9335 6.51992 17.4801C5.06652 16.0267 4.25 14.0554 4.25 12C4.25 9.94457 5.06652 7.97333 6.51992 6.51992ZM12 5.75C10.3424 5.75 8.75269 6.40848 7.58058 7.58058C6.40848 8.75269 5.75 10.3424 5.75 12C5.75 13.6576 6.40848 15.2473 7.58058 16.4194C8.75269 17.5915 10.3424 18.25 12 18.25C13.6576 18.25 15.2473 17.5915 16.4194 16.4194C17.5915 15.2473 18.25 13.6576 18.25 12C18.25 10.3424 17.5915 8.75269 16.4194 7.58058C15.2473 6.40848 13.6576 5.75 12 5.75ZM12 8.25C12.4142 8.25 12.75 8.58579 12.75 9V12C12.75 12.4142 12.4142 12.75 12 12.75C11.5858 12.75 11.25 12.4142 11.25 12V9C11.25 8.58579 11.5858 8.25 12 8.25ZM12 15.5C12.5523 15.5 13 15.0523 13 14.5C13 13.9477 12.5523 13.5 12 13.5C11.4477 13.5 11 13.9477 11 14.5C11 15.0523 11.4477 15.5 12 15.5Z" fill="currentColor"/>
</svg>
