<svg width="24" height="24" viewBox="0 0 24 24" fill="none" xmlns="http://www.w3.org/2000/svg">
<path d="M8.7218 10.1066C10.1673 8.66109 12.4482 8.66109 13.8937 10.1066L12.4796 11.5206C11.8152 10.8562 10.8003 10.8562 10.1359 11.5206L7.49816 14.1573C6.83374 14.8218 6.83374 15.8376 7.49816 16.5021C8.16259 17.1665 9.17847 17.1665 9.84289 16.5021L10.5675 15.7765L11.9816 17.1905L11.257 17.9161C9.81148 19.3616 7.52957 19.3616 6.0841 17.9161C4.63863 16.4707 4.63863 14.1888 6.0841 12.7433L8.7218 10.1066ZM12.7433 6.0841C14.1888 4.63863 16.4707 4.63863 17.9161 6.0841C19.3616 7.52957 19.3616 9.81148 17.9161 11.257L15.2784 13.8937C13.833 15.3391 11.552 15.3391 10.1066 13.8937L11.5206 12.4796C12.185 13.144 13.2 13.144 13.8644 12.4796L16.5021 9.84289C17.1665 9.17847 17.1665 8.16259 16.5021 7.49816C15.8376 6.83374 14.8218 6.83374 14.1573 7.49816L13.4327 8.22375L12.0187 6.80969L12.7433 6.0841Z" fill="currentColor"/>
</svg>
