<svg width="24" height="24" viewBox="0 0 24 24" fill="none" xmlns="http://www.w3.org/2000/svg">
<path d="M21.9999 7.91667C21.9166 6.83333 21.7499 6.16667 21.4999 5.5C21.3333 4.83333 20.9999 4.25 20.4166 3.66667C19.8333 3.08333 19.3333 2.75 18.6666 2.5C17.9999 2.25 17.3333 2.08333 16.2499 2C15.1666 2 14.8333 2 12.0833 2C9.33325 2 8.99992 2 7.99992 2.08333C6.91658 2.08333 6.16658 2.25 5.49992 2.5C4.91659 2.75 4.33325 3.08333 3.74992 3.66667C3.16659 4.25 2.83325 4.83333 2.58325 5.41667C2.33325 6.08333 2.16659 6.83333 2.16659 7.91667C2.08325 8.91667 2.08325 9.25 2.08325 12C2.08325 14.75 2.08325 15.0833 2.16659 16.0833C2.24992 17.1667 2.41659 17.8333 2.66659 18.5C2.83325 19.1667 3.16659 19.75 3.74992 20.3333C4.33325 20.9167 4.83325 21.25 5.49992 21.5C6.16658 21.75 6.83325 21.9167 7.91658 22C8.99992 22 9.33325 22 12.0833 22C14.8333 22 15.1666 22 16.1666 21.9167C17.2499 21.8333 17.9166 21.6667 18.5833 21.4167C19.2499 21.1667 19.8333 20.8333 20.3333 20.25C20.9166 19.6667 21.2499 19.1667 21.4999 18.5C21.7499 17.8333 21.9166 17.1667 21.9999 16.0833C22.0833 15.0833 22.0833 14.75 22.0833 12C22.0833 9.25 22.0833 8.91667 21.9999 7.91667ZM20.2499 16C20.1666 17 20.0833 17.5 19.9166 17.8333C19.7499 18.3333 19.4999 18.6667 19.1666 19C18.8333 19.3333 18.4999 19.5833 17.9999 19.75C17.6666 19.9167 17.0833 20.0833 16.1666 20.0833C15.0833 20.1667 14.8333 20.1667 12.1666 20.1667C9.49992 20.1667 9.16659 20.1667 8.16659 20.0833C7.16659 20 6.66659 19.9167 6.33325 19.75C5.83325 19.5833 5.49992 19.3333 5.16659 19C4.83325 18.6667 4.58325 18.3333 4.41659 17.8333C4.24992 17.5 4.08325 16.9167 4.08325 16C3.99992 14.9167 3.99992 14.6667 3.99992 12C3.99992 9.33333 3.99992 9 4.08325 8C3.99992 7 4.16659 6.41667 4.24992 6.08333C4.41659 5.58333 4.66659 5.25 4.99992 4.91667C5.33325 4.58333 5.66659 4.33333 6.16659 4.16667C6.49992 4.08333 7.08325 3.91667 8.08325 3.83333C9.08325 3.83333 9.41658 3.83333 12.0833 3.83333C14.7499 3.83333 15.0833 3.83333 16.0833 3.91667C17.0833 4 17.5833 4.08333 17.9166 4.25C18.4166 4.41667 18.7499 4.66667 19.0833 5C19.4166 5.33333 19.6666 5.66667 19.8333 6.16667C19.9999 6.5 20.1666 7.08333 20.1666 8C20.2499 9.08333 20.2499 9.33333 20.2499 12C20.2499 14.6667 20.2499 15 20.2499 16ZM12.0833 6.83333C9.24992 6.83333 6.91659 9.16667 6.91659 12C6.91659 14.8333 9.24992 17.1667 12.0833 17.1667C14.9166 17.1667 17.2499 14.8333 17.2499 12C17.2499 9.16667 14.9166 6.83333 12.0833 6.83333ZM12.0833 15.3333C10.2499 15.3333 8.74992 13.8333 8.74992 12C8.74992 10.1667 10.2499 8.66667 12.0833 8.66667C13.9166 8.66667 15.4166 10.1667 15.4166 12C15.4166 13.8333 13.9166 15.3333 12.0833 15.3333ZM18.5833 6.66667C18.5833 7.33333 18.0833 7.83333 17.4166 7.83333C16.7499 7.83333 16.2499 7.33333 16.2499 6.66667C16.2499 6 16.7499 5.5 17.4166 5.5C18.0833 5.5 18.5833 6 18.5833 6.66667Z" fill="currentColor"/>
</svg>
