<svg width="24" height="24" viewBox="0 0 24 24" fill="none" xmlns="http://www.w3.org/2000/svg">
<path d="M22 6.66667C22 6.33333 22 5.91667 21.9167 5.58333C21.8333 5.16667 21.75 4.75 21.5 4.33333C21.25 3.91667 21 3.58333 20.6667 3.25C20.1667 2.75 19.5833 2.41667 18.8333 2.25C18.1667 2.08333 17.5 2 16.9167 2H7.08333C6.75 2 6.33333 2 6 2.08333C5.58333 2.16667 5.16667 2.16667 4.83333 2.33333C4.25 2.58333 3.66667 2.91667 3.25 3.33333C2.75 3.83333 2.41667 4.5 2.25 5.16667C2.08333 5.83333 2 6.41667 2 7.08333V16.9167C2 17.3333 2 17.8333 2.08333 18.25C2.16667 18.75 2.25 19.1667 2.5 19.5833C2.83333 20.1667 3.16667 20.6667 3.66667 21.0833C4 21.3333 4.41667 21.5833 4.83333 21.75C5.58333 21.9167 6.25 22 6.91667 22C7.33333 22 7.75 22 8.16667 22C11.25 22 14.25 22 17.3333 22C17.75 22 18.1667 21.9167 18.5 21.8333C19.25 21.6667 19.9167 21.3333 20.5 20.8333C21.1667 20.25 21.5833 19.5 21.8333 18.5833C22 18 22 17.4167 22 16.8333V16.75C22 16.75 22 6.83333 22 6.66667ZM19.4167 16C19.3333 16.1667 19.1667 16.3333 18.9167 16.4167C18.5833 16.5833 18.0833 16.6667 17.4167 16.8333C17.4167 16.9167 17.3333 17.0833 17.3333 17.1667C17.3333 17.25 17.25 17.4167 17.25 17.5C17.1667 17.6667 17.0833 17.75 16.8333 17.75C16.75 17.75 16.6667 17.75 16.5 17.6667C16.25 17.5833 16 17.5833 15.75 17.5833C15.5833 17.5833 15.4167 17.5833 15.1667 17.6667C14.8333 17.75 14.5 17.9167 14.0833 18.25C13.5833 18.6667 12.9167 19.0833 12 19.0833H11.9167H11.8333C10.9167 19.0833 10.3333 18.6667 9.75 18.25C9.41667 18 9.08333 17.75 8.66667 17.6667C8.5 17.6667 8.25 17.5833 8.08333 17.5833C7.75 17.5833 7.5 17.6667 7.33333 17.6667C7.16667 17.6667 7.08333 17.75 7 17.75C6.75 17.75 6.66667 17.5833 6.58333 17.4167C6.58333 17.3333 6.5 17.1667 6.5 17.0833C6.5 17 6.41667 16.8333 6.41667 16.75C5.75 16.6667 5.25 16.5 4.91667 16.3333C4.75 16.3333 4.58333 16.1667 4.5 16C4.5 15.9167 4.5 15.9167 4.5 15.8333C4.5 15.6667 4.58333 15.5 4.83333 15.5C5.25 15.4167 5.75 15.25 6.08333 15C6.41667 14.75 6.75 14.5 7 14.1667C7.5 13.5833 7.75 13.0833 7.75 13C7.83333 12.75 7.83333 12.5833 7.83333 12.5C7.75 12.25 7.33333 12.0833 7 12C6.91667 12 6.83333 11.9167 6.75 11.9167C6.5 11.8333 6.33333 11.75 6.16667 11.5833C5.91667 11.3333 5.91667 11.1667 5.91667 11.0833C5.91667 10.9167 6.08333 10.75 6.25 10.6667C6.41667 10.5833 6.58333 10.5 6.66667 10.5C6.75 10.5 6.83333 10.5 6.91667 10.5833C7.16667 10.6667 7.41667 10.75 7.58333 10.75C7.66667 10.75 7.75 10.75 7.83333 10.6667C7.83333 10.5833 7.83333 10.4167 7.83333 10.3333C7.83333 9.33333 7.75 8.08333 8.08333 7.33333C8.33333 6.83333 8.66667 6.41667 9 6C9.33333 5.75 9.75 5.5 10.1667 5.33333C10.9167 5 11.5833 5 11.9167 5H12.1667C12.5 5 13.1667 5.08333 13.9167 5.33333C14.3333 5.5 14.6667 5.75 15 6.08333C15.4167 6.41667 15.6667 6.91667 15.9167 7.41667C16.25 8.16667 16.1667 9.41667 16.0833 10.4167V10.5C16.0833 10.5833 16.0833 10.6667 16.0833 10.75C16.1667 10.75 16.1667 10.75 16.25 10.8333C16.4167 10.8333 16.6667 10.75 16.9167 10.6667C17 10.5833 17.1667 10.5833 17.25 10.5833C17.3333 10.5833 17.5 10.5833 17.5833 10.6667C17.9167 10.75 18.0833 11 18.0833 11.25C18.0833 11.3333 18.0833 11.5 17.9167 11.6667C17.75 11.8333 17.5833 11.9167 17.3333 12C17.25 12 17.1667 12.0833 17.0833 12.0833C16.8333 12.1667 16.4167 12.3333 16.25 12.5833C16.1667 12.75 16.25 12.9167 16.3333 13.0833C16.3333 13.1667 17.25 15.25 19.25 15.5833C19.4167 15.5833 19.5833 15.75 19.5833 15.9167C19.5 15.9167 19.5 15.9167 19.4167 16Z" fill="currentColor"/>
</svg>
