<svg width="24" height="24" viewBox="0 0 24 24" fill="none" xmlns="http://www.w3.org/2000/svg">
<path d="M21.6364 7.22078C21.4026 6.4026 20.7013 5.7013 19.8831 5.46753C18.2468 5 12.0519 5 12.0519 5C12.0519 5 5.74026 5 4.22078 5.46753C3.28571 5.7013 2.7013 6.28571 2.46753 7.22078C2 8.74026 2 12.013 2 12.013C2 12.013 2 15.2857 2.46753 16.8052C2.7013 17.6234 3.4026 18.3247 4.22078 18.5584C5.74026 19.026 12.0519 19.026 12.0519 19.026C12.0519 19.026 18.3636 19.026 19.8831 18.5584C20.7013 18.3247 21.4026 17.6234 21.6364 16.8052C21.987 15.2857 21.987 12.013 21.987 12.013C21.987 12.013 22.1039 8.74026 21.6364 7.22078ZM10.0649 15.0519V8.97403L15.2078 12.013L10.0649 15.0519Z" fill="currentColor"/>
</svg>
