<svg width="24" height="24" viewBox="0 0 24 24" fill="none" xmlns="http://www.w3.org/2000/svg">
	<g clip-path="url(#clip0_10807_112936)">
		<path d="M16.0417 17.2401C18.5417 16.9401 20.7317 15.4001 21.0417 13.9901C21.3212 12.1972 21.455 10.3846 21.4417 8.57008C21.3717 4.23008 18.5217 3.00008 18.5217 3.00008C16.4432 2.26472 14.2452 1.92552 12.0417 2.00008C9.83817 1.92552 7.64021 2.26472 5.56168 3.00008C5.56168 3.00008 2.72168 4.23008 2.72168 8.57008V12.0101C2.82168 16.2501 3.50168 20.4301 7.42168 21.4701C8.9239 21.8903 10.4833 22.0692 12.0417 22.0001C13.2637 21.9677 14.4671 21.6923 15.5817 21.1901L15.5117 19.5501C14.385 19.8776 13.2146 20.0294 12.0417 20.0001C10.2417 19.9401 8.33168 19.8101 8.04168 17.6001C8.02613 17.3904 8.02613 17.1798 8.04168 16.9701C9.35631 17.2686 10.6949 17.4493 12.0417 17.5101C13.3803 17.5337 14.7184 17.4434 16.0417 17.2401ZM9.50168 7.44008C8.60168 7.44008 8.15168 7.98008 8.15168 9.06008V14.1601H6.04168V8.90008C5.99211 7.9751 6.28391 7.06411 6.86168 6.34008C7.13596 6.01846 7.47836 5.76187 7.86405 5.58891C8.24974 5.41596 8.66908 5.33096 9.09168 5.34008C9.56474 5.31468 10.0361 5.41514 10.4577 5.6312C10.8793 5.84727 11.236 6.17123 11.4917 6.57008L12.0117 7.44008L12.5317 6.57008C12.7873 6.17123 13.1441 5.84727 13.5657 5.6312C13.9873 5.41514 14.4586 5.31468 14.9317 5.34008C15.3543 5.33096 15.7736 5.41596 16.1593 5.58891C16.545 5.76187 16.8874 6.01846 17.1617 6.34008C17.761 7.05552 18.0744 7.96737 18.0417 8.90008V14.1601H15.9317V9.06008C15.9317 7.98008 15.4817 7.44008 14.5817 7.44008C13.5817 7.44008 13.0717 8.08008 13.0717 9.36008V12.1501H11.0417V9.36008C11.0417 8.08008 10.5017 7.44008 9.50168 7.44008Z" fill="currentColor"/>
	</g>
	<defs>
		<clipPath id="clip0_10807_112936">
			<rect width="24" height="24" fill="white"/>
		</clipPath>
	</defs>
</svg>
