<svg width="24" height="24" viewBox="0 0 24 24" fill="none" xmlns="http://www.w3.org/2000/svg">
<path d="M12 2C6.5 2 2 6.5 2 12C2 16.0833 4.5 19.5833 8 21.1667C8 20.5 8 19.6667 8.16667 18.8333C8.33333 18 9.41667 13.4167 9.41667 13.4167C9.41667 13.4167 9.08333 12.75 9.08333 11.8333C9.08333 10.3333 9.91667 9.25 11 9.25C11.9167 9.25 12.3333 9.91667 12.3333 10.75C12.3333 11.6667 11.75 13 11.4167 14.3333C11.1667 15.4167 11.9167 16.25 13 16.25C14.9167 16.25 16.1667 13.8333 16.1667 10.9167C16.1667 8.75 14.6667 7.08333 12 7.08333C9 7.08333 7.08333 9.33333 7.08333 11.8333C7.08333 12.6667 7.33333 13.3333 7.75 13.8333C7.91667 14.0833 8 14.1667 7.91667 14.4167C7.83333 14.5833 7.75 15.0833 7.75 15.25C7.66667 15.5 7.5 15.5833 7.25 15.5C5.83333 14.9167 5.16667 13.4167 5.16667 11.6667C5.25 8.75 7.66667 5.33333 12.4167 5.33333C16.25 5.33333 18.75 8.08333 18.75 11.0833C18.75 15 16.5833 17.9167 13.3333 17.9167C12.25 17.9167 11.25 17.3333 10.9167 16.6667C10.9167 16.6667 10.3333 19 10.25 19.4167C10 20.1667 9.58333 20.9167 9.25 21.5833C10.0833 21.8333 11 22 12 22C17.5 22 22 17.5 22 12C22 6.5 17.5 2 12 2Z" fill="currentColor"/>
</svg>
