<svg width="24" height="24" viewBox="0 0 24 24" fill="none" xmlns="http://www.w3.org/2000/svg">
<path fill-rule="evenodd" clip-rule="evenodd" d="M21.8 21H17.4239V14.6723C17.4239 13.016 16.7394 11.8853 15.2342 11.8853C14.0828 11.8853 13.4425 12.6483 13.1445 13.3837C13.0327 13.6476 13.0502 14.0153 13.0502 14.383V21H8.71487C8.71487 21 8.77075 9.79107 8.71487 8.77218H13.0502V10.6912C13.3063 9.85215 14.6916 8.65461 16.9024 8.65461C19.6451 8.65461 21.8 10.4135 21.8 14.2009V21ZM4.33064 7.24269H4.30271C2.90572 7.24269 2 6.30793 2 5.12307C2 3.91515 2.93249 3 4.35742 3C5.78118 3 6.65663 3.91286 6.68457 5.11962C6.68457 6.30448 5.78118 7.24269 4.33064 7.24269ZM2.49941 8.77218H6.35861V21H2.49941V8.77218Z" fill="currentColor"/>
</svg>
