<svg width="24" height="24" viewBox="0 0 24 24" fill="none" xmlns="http://www.w3.org/2000/svg">
<path d="M12 2C6.475 2 2 6.475 2 12C2 17.525 6.475 22 12 22C17.525 22 22 17.525 22 12C22 6.475 17.525 2 12 2ZM16.5875 16.425C16.4062 16.7188 16.025 16.8125 15.7312 16.6313C13.3812 15.2 10.425 14.875 6.94375 15.6688C6.60625 15.7438 6.275 15.5375 6.2 15.2C6.125 14.8625 6.33125 14.5312 6.66875 14.4563C10.475 13.5875 13.7438 13.9625 16.3813 15.5687C16.675 15.75 16.7688 16.1313 16.5875 16.425ZM17.8125 13.7C17.5875 14.0687 17.1062 14.1812 16.7375 13.9562C14.05 12.3062 9.95 11.825 6.775 12.7938C6.3625 12.9188 5.925 12.6875 5.8 12.275C5.675 11.8625 5.90625 11.425 6.31875 11.3C9.95 10.2 14.4625 10.7312 17.55 12.6313C17.9187 12.8562 18.0312 13.3375 17.8063 13.7H17.8125ZM17.9125 10.8625C14.6875 8.95 9.375 8.775 6.29375 9.70625C5.8 9.85625 5.275 9.575 5.125 9.08125C4.975 8.5875 5.25625 8.0625 5.75 7.9125C9.28125 6.8375 15.1562 7.05 18.8625 9.25C19.3062 9.5125 19.4562 10.0875 19.1875 10.5312C18.925 10.975 18.35 11.125 17.9062 10.8562L17.9125 10.8625Z" fill="currentColor"/>
</svg>
