<svg width="24" height="24" viewBox="0 0 24 24" fill="none" xmlns="http://www.w3.org/2000/svg">
<path d="M12.1618 2.15503C6.64116 2.15503 2.15479 6.6414 2.15479 12.148C2.15479 14.0348 2.68588 15.8797 3.6782 17.473L3.91579 17.8503L2.9095 21.5401L6.69706 20.5478L7.06045 20.7714C8.59783 21.6798 10.3588 22.169 12.1478 22.169C17.6544 22.169 22.1408 17.6826 22.1408 12.176C22.1408 9.50653 21.1066 6.99081 19.2198 5.10402C17.333 3.20325 14.8312 2.15503 12.1618 2.15503ZM18.0318 16.4387C17.7802 17.1376 16.5783 17.7805 16.0052 17.8643C15.4881 17.9482 14.8312 17.9761 14.1184 17.7385C13.6852 17.5988 13.1261 17.4171 12.3994 17.1096C9.3805 15.8098 7.40985 12.777 7.27009 12.5673C7.11635 12.3717 6.04018 10.9321 6.04018 9.4646C6.04018 7.9971 6.82285 7.25636 7.0884 6.96286C7.36792 6.65538 7.68938 6.5855 7.88504 6.5855C8.08071 6.5855 8.29035 6.5855 8.45807 6.5855C8.63976 6.5855 8.89133 6.51562 9.12893 7.10262C9.3805 7.7036 9.98148 9.18508 10.0514 9.33882C10.1212 9.49256 10.1771 9.66027 10.0793 9.86991C9.98148 10.0656 9.92557 10.1914 9.77184 10.3731C9.6181 10.5547 9.45038 10.7644 9.3246 10.9042C9.17086 11.0579 9.01712 11.2116 9.19881 11.5191C9.3805 11.8266 9.98148 12.8049 10.876 13.6016C12.022 14.6218 12.9864 14.9433 13.2938 15.097C13.5873 15.2508 13.769 15.2228 13.9507 15.0271C14.1324 14.8315 14.7054 14.1466 14.9011 13.8531C15.0968 13.5457 15.3064 13.6016 15.572 13.6994C15.8515 13.7972 17.319 14.524 17.6265 14.6777C17.934 14.8315 18.1296 14.9014 18.1995 15.0271C18.2694 15.1529 18.2694 15.7539 18.0178 16.4527L18.0318 16.4387Z" fill="currentColor"/>
</svg>
