<svg width="24" height="24" viewBox="0 0 24 24" fill="none" xmlns="http://www.w3.org/2000/svg">
<path d="M19.5833 2H4.41667C3.08333 2 2 3.08333 2 4.41667V19.6667C2 20.9167 3.08333 22 4.41667 22H19.6667C21 22 22.0833 20.9167 22.0833 19.5833V4.41667C22 3.08333 20.9167 2 19.5833 2ZM17.75 10.75C17.6667 10.75 17.5 10.75 17.4167 10.75C16.25 10.75 15.0833 10.1667 14.4167 9.16667V14.6667C14.4167 16.9167 12.5833 18.75 10.3333 18.75C8.08333 18.75 6.25 16.9167 6.25 14.6667C6.25 12.4167 8.08333 10.5833 10.3333 10.5833C10.4167 10.5833 10.5 10.5833 10.5833 10.5833V12.5833C10.5 12.5833 10.4167 12.5833 10.3333 12.5833C9.16667 12.5833 8.25 13.5 8.25 14.6667C8.25 15.8333 9.16667 16.75 10.3333 16.75C11.5 16.75 12.5 15.8333 12.5 14.6667V5.33333H14.4167C14.5833 7.08333 16 8.41667 17.6667 8.5L17.75 10.75Z" fill="currentColor"/>
</svg>
